<?xml version="1.0" standalone="no"?>
<!DOCTYPE svg PUBLIC "-//W3C//DTD SVG 20010904//EN"
 "http://www.w3.org/TR/2001/REC-SVG-20010904/DTD/svg10.dtd">
<svg version="1.0" xmlns="http://www.w3.org/2000/svg"
 width="512.000000pt" height="512.000000pt" viewBox="0 0 512.000000 512.000000"
 preserveAspectRatio="xMidYMid meet">
<metadata>
Created by potrace 1.11, written by Peter Selinger 2001-2013
</metadata>
<g transform="translate(0.000000,512.000000) scale(0.100000,-0.100000)"
fill="#000000" stroke="none">
<path d="M1335 5086 c-33 -4 -87 -18 -120 -31 -85 -33 -278 -135 -313 -167
-16 -14 -39 -31 -51 -37 -11 -7 -21 -20 -21 -30 0 -9 -11 -28 -24 -40 -14 -13
-26 -38 -28 -55 -2 -24 -8 -32 -28 -34 -32 -5 -60 -30 -60 -54 0 -10 -10 -32
-21 -48 -12 -16 -19 -35 -16 -43 3 -8 1 -19 -5 -25 -6 -6 -6 -16 3 -30 10 -16
10 -26 -1 -51 -7 -17 -16 -31 -20 -31 -4 0 -10 -9 -13 -20 -3 -11 -1 -20 5
-20 5 0 6 -4 3 -10 -3 -5 3 -10 15 -10 17 0 20 -4 15 -22 -4 -13 -13 -32 -20
-44 -12 -18 -11 -23 6 -34 13 -10 17 -21 12 -39 -4 -18 -3 -23 8 -19 10 4 15
-4 17 -30 1 -20 9 -49 17 -65 8 -17 15 -36 15 -43 0 -7 3 -15 8 -17 4 -3 7 54
7 126 0 111 4 144 23 207 34 107 74 224 78 229 3 3 20 -10 38 -28 19 -18 45
-34 59 -34 14 -1 23 -7 20 -14 -2 -6 6 -14 18 -18 14 -5 25 -3 27 4 2 7 13 4
29 -9 33 -25 59 -25 75 0 14 23 28 26 28 8 0 -7 7 -22 15 -32 14 -19 15 -18
24 5 l9 24 7 -27 c8 -32 39 -38 54 -10 7 13 19 18 43 16 18 -1 36 3 41 9 5 9
13 5 26 -10 11 -13 22 -23 25 -23 10 0 46 39 46 50 0 12 3 12 33 1 15 -6 44
-5 82 4 32 8 62 12 66 9 4 -2 11 1 14 7 5 7 21 8 43 4 23 -4 37 -2 42 6 10 15
66 20 97 8 13 -5 25 -4 28 1 11 18 32 11 50 -16 9 -15 12 -23 6 -20 -6 4 -11
1 -11 -8 0 -8 4 -16 10 -18 5 -1 10 -25 11 -53 1 -27 7 -53 12 -57 6 -3 11
-33 11 -65 1 -32 6 -64 13 -71 16 -17 13 -130 -4 -136 -7 -3 -13 -15 -13 -26
0 -11 -7 -23 -15 -26 -8 -4 -15 -12 -15 -19 0 -8 -7 -20 -15 -29 -13 -13 -13
-16 0 -30 9 -8 15 -19 14 -23 -5 -28 3 -44 19 -41 11 2 30 -2 43 -9 13 -6 33
-14 44 -18 14 -4 16 -8 7 -14 -10 -6 -10 -11 3 -21 8 -7 15 -19 15 -27 0 -15
25 -66 46 -93 10 -13 19 -63 15 -80 -1 -3 -3 -31 -5 -62 -1 -31 -8 -63 -14
-70 -6 -8 -13 -25 -15 -38 -2 -14 -8 -33 -12 -44 -5 -10 -4 -21 2 -25 11 -7
10 -36 -2 -64 -4 -9 -2 -31 5 -47 6 -16 9 -34 5 -39 -4 -7 1 -8 12 -4 15 6 16
4 6 -9 -7 -8 -9 -19 -5 -23 4 -5 1 -5 -6 -1 -14 9 -42 -10 -42 -28 0 -6 4 -4
10 4 5 8 12 11 16 7 4 -3 1 -13 -6 -22 -10 -12 -10 -18 0 -30 10 -13 9 -15 -8
-15 -12 0 -23 9 -27 21 -6 17 -9 19 -16 8 -12 -19 23 -49 50 -42 15 4 21 1 21
-10 0 -20 -22 -35 -28 -19 -2 7 -8 10 -13 6 -5 -3 -9 0 -9 5 0 6 -6 11 -14 11
-11 0 -15 -12 -14 -39 0 -22 -3 -45 -7 -52 -6 -9 -3 -11 8 -6 21 8 21 4 0 -31
-32 -51 -73 -93 -84 -87 -6 4 -17 -2 -25 -13 -8 -12 -21 -19 -29 -16 -9 4 -15
0 -15 -9 0 -8 -8 -14 -17 -13 -13 1 -17 -5 -15 -21 2 -16 -2 -23 -13 -23 -9 0
-13 -5 -10 -10 4 -6 11 -8 16 -5 5 4 9 1 9 -4 0 -17 -47 -13 -54 5 -3 9 -4 20
-1 24 3 5 1 11 -5 15 -5 3 -10 1 -10 -4 0 -6 -11 -11 -25 -11 -15 0 -29 -7
-33 -18 -4 -10 -17 -17 -32 -17 -19 0 -26 -7 -34 -33 -11 -39 4 -55 41 -45 18
4 23 1 23 -13 0 -13 6 -9 16 13 9 18 20 30 25 27 5 -3 7 -10 3 -15 -3 -6 3
-13 15 -16 11 -3 18 -10 15 -15 -3 -5 -12 -7 -20 -4 -18 7 -29 -13 -25 -44 3
-21 1 -23 -14 -10 -14 12 -18 12 -26 -1 -5 -8 -9 -17 -9 -21 0 -5 -7 -8 -15
-8 -8 0 -15 -9 -15 -20 0 -14 -7 -20 -21 -20 -15 0 -19 -5 -15 -15 4 -12 0
-14 -19 -9 -15 4 -25 2 -25 -5 0 -6 -11 -11 -24 -11 -13 0 -26 -7 -30 -15 -4
-11 -13 -14 -31 -9 -15 4 -25 2 -25 -5 0 -6 7 -11 15 -11 8 0 15 -4 15 -10 0
-14 -11 -12 -34 5 -14 11 -21 11 -31 2 -7 -7 -11 -15 -8 -20 2 -4 -15 0 -39 9
-53 21 -100 63 -144 130 l-33 52 -48 -9 c-26 -5 -114 -27 -196 -49 -81 -22
-153 -40 -159 -40 -19 0 -165 -78 -208 -112 -14 -11 -53 -51 -87 -89 -46 -51
-63 -78 -68 -106 -5 -38 -41 -160 -77 -263 -11 -30 -24 -71 -29 -90 -6 -19
-15 -48 -20 -65 -6 -16 -12 -57 -13 -90 -2 -33 -7 -92 -11 -131 -7 -69 -7 -72
21 -97 35 -33 127 -82 198 -107 58 -20 93 -47 98 -77 2 -10 7 -21 13 -25 6 -4
1 -18 -11 -35 -16 -21 -19 -34 -13 -51 6 -16 5 -24 -5 -28 -8 -3 -12 -14 -9
-25 3 -10 1 -25 -4 -32 -5 -6 -8 -25 -8 -42 2 -33 -22 -68 -39 -58 -6 4 -5 -1
3 -10 11 -14 11 -18 -4 -23 -11 -5 -15 -14 -11 -30 3 -12 2 -26 -4 -29 -5 -3
-7 0 -4 8 3 8 0 18 -6 22 -17 10 -31 -16 -19 -32 14 -16 4 -32 -19 -28 -9 1
-11 0 -5 -2 21 -7 15 -23 -9 -23 -22 -1 -23 -1 -4 -15 17 -13 18 -15 3 -15 -9
0 -17 -7 -17 -15 0 -9 -7 -18 -16 -22 -8 -3 -13 -12 -10 -19 3 -8 0 -11 -9 -7
-9 3 -18 -3 -22 -13 -10 -27 -42 -47 -81 -51 -19 -2 -41 -10 -49 -18 -8 -8
-20 -15 -26 -15 -8 0 -7 -3 2 -9 7 -5 11 -13 7 -19 -3 -6 -1 -14 7 -19 19 -12
38 -61 27 -68 -18 -11 -11 -40 12 -50 30 -14 35 -35 8 -35 -12 0 -18 -4 -15
-10 4 -6 11 -8 16 -5 5 4 14 3 20 -1 16 -9 -10 -24 -43 -24 -21 0 -28 -5 -28
-20 0 -22 10 -26 27 -9 9 9 21 7 50 -8 21 -11 45 -18 53 -16 13 4 13 3 0 -6
-8 -6 -32 -11 -52 -11 -20 0 -43 -7 -52 -15 -17 -17 -46 -20 -46 -5 0 6 8 10
18 10 12 1 9 5 -11 16 -29 16 -57 13 -57 -6 0 -5 9 -10 21 -10 14 0 19 -5 16
-14 -4 -10 4 -15 26 -19 18 -2 34 -1 35 4 5 11 42 12 42 1 0 -5 -9 -19 -19
-31 -11 -12 -17 -30 -14 -41 4 -13 0 -20 -10 -20 -8 0 -18 14 -23 33 l-8 32
-4 -39 c-3 -32 -8 -40 -33 -49 -17 -7 -27 -17 -25 -24 3 -8 -2 -13 -14 -13
-11 0 -20 -4 -20 -10 0 -5 10 -10 22 -10 21 0 21 0 2 -14 -26 -19 -10 -32 24
-20 19 7 27 16 27 33 0 14 6 26 14 29 10 3 12 0 8 -12 -4 -9 -3 -16 2 -16 5 0
11 10 15 23 3 13 17 29 31 35 19 9 25 17 20 31 -7 23 13 39 21 17 4 -11 14
-14 33 -10 l26 7 -29 -32 c-17 -17 -36 -31 -43 -31 -44 0 49 -109 95 -110 15
0 22 -6 22 -19 0 -31 11 -50 25 -45 7 3 16 1 20 -5 8 -14 22 -13 -210 -21
-110 -3 953 -7 2363 -8 l2562 -2 0 68 0 67 -44 35 c-41 32 -45 40 -51 93 -7
55 -8 57 -25 42 -25 -23 -14 -113 25 -207 13 -32 -22 -20 -49 15 -18 24 -26
46 -26 75 0 23 -4 42 -10 42 -5 0 -6 -8 -3 -17 5 -12 2 -15 -10 -10 -13 5 -17
0 -17 -21 0 -15 4 -43 10 -61 14 -50 3 -52 -35 -6 l-33 39 -15 -34 c-9 -19
-18 -43 -21 -52 -6 -20 -60 -25 -71 -7 -5 7 -13 5 -25 -6 -16 -15 -20 -14 -49
11 l-32 26 -24 -26 c-13 -14 -27 -26 -30 -26 -32 0 -87 75 -100 138 -4 17 -10
32 -15 32 -9 0 -3 -71 11 -114 16 -51 12 -68 -13 -61 -13 4 -34 18 -48 31
l-25 24 -32 -37 -33 -38 -20 24 c-11 13 -20 29 -20 37 0 25 -16 15 -33 -21
-21 -44 -41 -44 -69 0 -27 41 -39 40 -50 -3 l-9 -32 -92 0 c-61 0 -98 4 -106
12 -11 10 -14 10 -18 1 -3 -7 -11 -13 -19 -13 -10 0 -14 13 -14 44 0 48 -8 60
-29 46 -8 -5 -12 -18 -9 -34 4 -18 -2 -32 -18 -47 -36 -33 -47 -16 -42 60 3
36 3 72 1 79 -7 17 -23 5 -23 -19 0 -21 -15 -26 -24 -6 -4 6 -4 -5 -2 -25 4
-32 0 -41 -30 -68 -42 -37 -70 -40 -59 -7 19 61 38 158 31 164 -4 5 -14 0 -21
-11 -9 -11 -20 -16 -30 -12 -9 3 -14 2 -11 -3 18 -29 -61 -121 -104 -121 -14
0 -12 9 12 60 38 78 47 130 24 130 -9 0 -26 -15 -37 -34 -19 -32 -77 -66 -114
-66 -17 0 -20 16 -5 25 6 4 18 23 27 43 9 20 19 40 20 43 5 8 -25 39 -38 39
-5 0 -15 -11 -21 -25 -8 -18 -19 -25 -40 -25 -38 0 -35 17 12 68 51 55 52 73
5 65 -40 -7 -40 -6 -17 70 21 67 26 73 71 84 41 10 64 39 42 52 -21 13 11 27
119 51 51 11 101 27 110 35 9 8 20 12 23 8 4 -3 7 1 7 10 0 10 -7 17 -15 17
-19 0 -19 7 0 27 13 13 23 13 60 4 24 -6 77 -11 117 -11 61 1 70 3 56 13 -15
12 -15 14 4 26 14 9 23 9 27 2 4 -5 36 -29 71 -52 71 -46 93 -69 80 -83 -6 -6
-2 -15 8 -22 16 -12 15 -13 -5 -14 -32 0 -37 -17 -7 -24 17 -5 24 -12 20 -21
-3 -9 4 -17 17 -21 32 -9 66 -44 60 -60 -3 -9 2 -14 17 -14 12 0 20 5 18 12
-6 25 -64 121 -112 186 -27 37 -38 58 -26 47 13 -11 45 -54 71 -95 82 -127 80
-125 94 -106 17 23 77 21 99 -3 10 -11 15 -24 12 -30 -10 -16 10 -22 38 -12
38 15 54 48 65 136 15 117 29 155 70 197 40 40 88 59 100 39 6 -9 15 -9 36 -1
25 9 26 9 15 -5 -10 -12 -9 -16 3 -21 21 -8 117 35 117 52 0 8 9 14 20 14 11
0 20 -5 20 -11 0 -8 15 -10 47 -5 41 5 45 4 29 -7 -18 -13 -18 -15 -1 -41 11
-16 24 -25 34 -22 9 2 40 10 69 16 28 7 52 16 52 21 0 4 -18 13 -40 19 -22 6
-40 12 -40 14 0 2 25 11 55 21 l55 17 0 517 0 517 -87 12 c-86 12 -157 32
-238 68 -22 9 -62 23 -90 30 -27 7 -72 21 -100 32 -71 28 -118 42 -123 37 -2
-2 6 -20 18 -40 30 -48 50 -149 40 -205 -10 -67 -31 -108 -101 -199 -95 -125
-166 -175 -292 -207 -67 -18 -211 -14 -245 5 -11 7 -13 10 -3 11 11 0 11 3 1
16 -9 10 -26 14 -49 12 -34 -3 -36 -2 -36 32 -1 19 -5 43 -9 53 -16 35 14 16
41 -25 19 -29 35 -43 51 -44 12 0 22 5 22 12 0 7 3 19 6 27 3 9 -2 17 -13 21
-14 4 -19 16 -19 43 0 21 -11 61 -24 88 -13 28 -24 56 -24 63 -1 7 -8 17 -16
22 -12 7 -11 10 5 17 18 6 16 8 -10 13 -25 5 -30 10 -28 33 1 18 -3 27 -13 27
-8 0 -14 10 -14 24 0 31 -18 78 -32 87 -8 5 -8 16 0 37 9 25 7 33 -10 52 -15
16 -17 25 -9 33 8 8 11 7 11 -6 0 -9 5 -17 10 -17 13 0 13 6 0 30 -7 13 -6 21
5 30 8 7 15 17 15 23 0 7 -4 7 -12 -1 -7 -7 -19 -12 -27 -12 -13 1 -13 3 2 14
15 12 16 18 8 35 -6 11 -10 24 -9 28 2 4 -16 28 -39 52 -24 24 -40 47 -38 52
10 15 -16 21 -32 7 -15 -12 -16 -10 -10 20 5 24 3 32 -8 32 -7 0 -16 4 -19 8
-2 4 8 7 22 6 17 -1 26 -6 25 -15 -2 -9 6 -15 17 -16 12 -1 39 -19 61 -40 23
-21 52 -48 65 -60 14 -13 35 -23 46 -23 16 0 19 -3 11 -11 -6 -6 -9 -18 -6
-25 3 -8 0 -14 -6 -14 -6 0 -11 -7 -11 -16 0 -10 6 -14 15 -10 8 3 15 0 15 -7
0 -7 3 -23 7 -36 4 -17 3 -22 -5 -17 -17 10 -15 -3 3 -20 8 -9 15 -23 15 -32
0 -14 -2 -15 -10 -2 -5 8 -12 11 -15 8 -4 -4 -3 -13 1 -20 5 -7 9 -17 9 -23 0
-5 8 -25 18 -44 11 -19 16 -43 13 -56 -4 -15 -1 -25 8 -28 8 -3 13 1 12 11 -1
13 6 16 32 14 23 -1 32 2 32 13 0 9 -7 18 -15 21 -22 9 -18 26 4 19 16 -5 19
-1 18 15 -1 11 -5 20 -9 20 -4 0 -8 6 -8 13 0 7 -8 22 -18 33 -24 26 -64 122
-57 135 5 7 11 7 19 0 9 -7 16 -7 24 1 9 9 17 9 34 0 13 -6 62 -16 109 -23 91
-13 130 -6 193 32 l29 18 -24 4 c-13 3 -52 10 -87 16 -34 5 -77 17 -94 25 -17
9 -37 16 -45 16 -8 0 -45 18 -83 40 -38 22 -71 40 -73 40 -3 0 -33 19 -67 42
-34 24 -70 47 -80 53 -10 5 -24 20 -31 32 -9 16 -18 21 -31 17 -16 -5 -17 -2
-8 21 9 23 7 28 -9 32 -11 3 -17 11 -15 18 3 7 1 16 -5 20 -6 3 -11 14 -11 24
0 9 -9 27 -20 39 -12 12 -16 22 -10 22 11 0 14 53 3 64 -4 3 -8 14 -9 24 -10
59 -36 180 -43 197 -13 30 -13 88 -1 80 5 -3 10 -1 10 4 0 6 -4 11 -10 11 -15
0 -12 54 5 76 8 10 15 15 15 9 0 -5 7 1 16 13 8 12 21 22 28 22 7 0 25 18 40
40 15 23 32 39 39 38 15 -3 67 35 67 50 0 16 112 53 126 41 9 -7 19 -7 34 1
12 6 28 9 36 6 24 -9 104 6 104 19 0 7 -13 24 -29 38 -27 23 -35 41 -32 77 1
13 3 13 10 1 6 -10 9 0 9 31 -1 47 6 68 23 68 7 0 8 -24 4 -69 -6 -66 -6 -69
13 -64 11 3 23 16 26 29 3 12 11 35 16 50 9 22 13 24 25 14 13 -10 15 -8 15
14 0 14 5 26 10 26 6 0 10 -4 10 -8 0 -4 14 -16 31 -26 23 -13 34 -15 42 -7 8
8 6 11 -7 11 -10 0 -14 5 -10 11 12 20 27 -8 28 -52 1 -46 26 -70 26 -25 0 33
13 33 30 1 18 -34 28 -32 26 5 -1 17 1 30 5 30 4 0 30 -22 58 -50 33 -32 60
-50 75 -50 14 0 38 -13 56 -31 37 -38 33 -49 -8 -19 -57 42 -202 16 -202 -37
0 -12 38 -19 80 -15 48 6 102 -11 131 -40 37 -38 49 -66 49 -119 0 -44 -8 -48
-36 -18 -29 32 -73 52 -134 58 -36 4 -54 11 -52 19 1 9 -6 10 -25 6 -16 -4
-29 -8 -30 -8 -1 -1 11 -30 27 -65 21 -44 34 -60 42 -54 7 4 22 6 33 5 16 -2
17 -1 5 7 -23 16 -4 24 32 13 18 -6 59 -13 91 -17 l57 -6 1 -37 c1 -61 24
-188 32 -176 4 7 11 41 16 77 5 36 14 73 19 83 15 28 32 222 22 248 -4 12 -7
40 -5 62 3 52 -20 169 -48 235 -40 98 -121 223 -184 285 -53 54 -72 65 -142
89 -44 14 -102 27 -128 27 -177 2 -288 -4 -339 -16 -102 -25 -161 -46 -174
-61 -7 -8 -17 -12 -22 -9 -17 11 -87 -48 -123 -102 -35 -52 -94 -92 -116 -78
-14 9 -105 -89 -159 -171 -55 -85 -88 -177 -97 -271 -8 -89 26 -219 76 -289 4
-5 13 -29 20 -53 13 -46 31 -48 31 -4 0 15 5 34 10 42 8 12 10 10 11 -10 0
-14 3 -19 6 -12 7 17 48 15 63 -3 7 -8 19 -15 26 -15 8 0 14 -9 14 -19 0 -11
5 -21 11 -23 6 -2 3 -13 -9 -28 -10 -14 -21 -35 -24 -47 -6 -21 -2 -19 35 12
46 40 60 42 85 17 13 -13 25 -16 45 -11 15 4 27 3 27 -2 0 -5 -4 -9 -10 -9 -5
0 -10 -9 -10 -19 0 -11 -4 -22 -9 -25 -5 -4 -7 3 -4 14 3 11 1 20 -5 20 -11 0
-20 -81 -14 -118 4 -19 7 -20 19 -10 15 12 15 1 3 -69 -1 -10 -66 -33 -92 -33
-22 0 -28 -3 -20 -9 8 -4 21 -19 30 -33 9 -14 30 -45 46 -68 34 -51 48 -112
75 -331 25 -189 25 -203 8 -169 -7 14 -21 27 -32 29 -11 2 -33 14 -48 27 -20
17 -33 21 -45 15 -21 -10 -43 -4 -60 18 -13 14 -13 14 -10 -4 2 -11 12 -21 25
-23 12 -2 27 -11 35 -19 11 -15 11 -16 -7 -8 -11 4 -35 10 -54 13 -31 4 -33 2
-28 -17 8 -33 -5 -25 -43 27 -36 48 -226 243 -253 258 -30 18 -145 122 -247
225 -58 58 -131 123 -163 143 -32 21 -62 47 -68 58 -9 17 -18 19 -52 15 -31
-4 -47 -1 -61 11 -18 16 -19 16 -13 0 4 -13 1 -18 -10 -18 -9 0 -59 -23 -111
-51 -52 -27 -101 -48 -108 -45 -8 3 -14 -1 -14 -8 0 -18 -84 -72 -149 -97 -52
-19 -80 -11 -34 10 20 9 23 15 14 20 -11 7 -11 10 0 14 10 4 11 8 3 14 -14 10
-28 53 -17 53 4 0 19 23 32 50 14 28 28 50 32 50 13 0 76 95 88 133 18 53 36
60 26 11 -4 -21 -11 -42 -17 -45 -6 -4 -8 -11 -4 -17 3 -5 -1 -15 -9 -22 -8
-7 -15 -21 -15 -30 0 -15 6 -13 35 13 19 17 36 40 36 51 1 18 2 19 6 3 3 -10
-3 -27 -12 -37 -14 -15 -16 -29 -10 -70 5 -39 4 -55 -8 -68 -14 -16 -14 -17 8
-17 13 0 21 3 18 8 -2 4 3 14 11 23 9 8 21 35 27 60 10 40 14 44 42 44 16 0
36 8 44 18 8 9 12 12 9 5 -9 -17 4 -43 22 -43 8 0 12 3 9 7 -4 3 -2 12 4 19 7
9 2 22 -20 47 -74 83 -146 339 -152 540 -2 56 -3 56 -28 50 -14 -3 -29 -11
-33 -16 -3 -6 -6 23 -6 65 1 74 2 76 31 89 17 8 32 21 33 30 1 9 14 34 28 57
35 55 35 107 1 134 -19 15 -24 26 -20 42 4 13 3 16 -2 9 -5 -7 -19 -14 -32
-16 -12 -2 -27 -10 -32 -18 -7 -11 -9 -11 -9 3 0 35 38 79 94 108 32 16 64 34
71 40 7 6 25 8 39 4 25 -6 26 -4 26 34 0 22 9 60 20 86 17 36 22 74 25 178 4
95 9 138 20 155 17 25 10 48 -19 72 -9 8 -21 31 -27 53 -5 22 -25 61 -43 86
-19 26 -41 63 -50 82 -23 50 -72 108 -108 126 -17 9 -53 40 -80 70 -32 34 -71
63 -107 79 -31 14 -64 30 -75 36 -10 6 -59 16 -110 22 -101 12 -107 14 -86 27
18 12 2 13 -195 14 -77 1 -167 -3 -200 -8z m582 -72 c-3 -3 -12 -4 -19 -1 -8
3 -5 6 6 6 11 1 17 -2 13 -5z m40 -20 c-3 -3 -12 -4 -19 -1 -8 3 -5 6 6 6 11
1 17 -2 13 -5z m48 -32 c-3 -3 -11 0 -18 7 -9 10 -8 11 6 5 10 -3 15 -9 12
-12z m41 -29 c-7 -7 -26 7 -26 19 0 6 6 6 15 -2 9 -7 13 -15 11 -17z m157
-1176 c15 -10 27 -23 27 -31 0 -21 -73 -126 -87 -126 -8 0 -14 15 -15 43 -1
23 -2 53 -2 67 -2 29 12 52 25 44 5 -3 9 5 9 18 0 13 4 18 8 13 4 -6 19 -18
35 -28z m-103 -47 c0 -5 -4 -10 -10 -10 -5 0 -10 5 -10 10 0 6 5 10 10 10 6 0
10 -4 10 -10z m1693 -248 c15 -17 13 -19 -28 -45 -43 -25 -60 -23 -32 5 8 7
12 19 9 27 -4 12 13 30 29 31 3 0 13 -8 22 -18z m-1603 -88 c0 -8 -4 -12 -10
-9 -5 3 -10 13 -10 21 0 8 5 12 10 9 6 -3 10 -13 10 -21z m-30 -24 c0 -5 -2
-10 -4 -10 -3 0 -8 5 -11 10 -3 6 -1 10 4 10 6 0 11 -4 11 -10z m30 -32 c0 -5
-4 -8 -10 -8 -5 0 -10 10 -10 23 0 18 2 19 10 7 5 -8 10 -18 10 -22z m-13 -50
c-3 -7 -5 -2 -5 12 0 14 2 19 5 13 2 -7 2 -19 0 -25z m-117 -103 c0 -15 -18
-30 -27 -22 -2 3 -2 15 2 26 7 23 25 19 25 -4z m2390 5 c0 -5 -7 -10 -16 -10
-8 0 -12 5 -9 10 3 6 10 10 16 10 5 0 9 -4 9 -10z m-2306 -88 c-16 -37 -39
-87 -52 -111 -26 -49 -20 -69 9 -32 11 13 22 21 25 18 4 -3 -1 -13 -10 -22 -9
-9 -16 -22 -16 -28 0 -8 4 -7 12 1 19 19 33 14 15 -6 -10 -10 -17 -26 -17 -34
0 -9 -7 -21 -15 -28 -8 -7 -15 -18 -15 -25 0 -7 -7 -18 -15 -25 -11 -9 -15 -9
-15 -1 0 7 -4 10 -9 6 -5 -3 -12 -1 -16 5 -3 6 1 13 10 16 10 4 13 13 9 26 -3
12 -2 18 3 15 5 -3 17 3 27 15 15 17 16 22 5 29 -19 12 -29 11 -29 -2 0 -6 -7
-18 -16 -27 -15 -15 -16 -14 -9 8 4 14 10 27 14 30 14 12 40 60 92 176 11 23
19 48 19 56 0 19 14 32 18 18 3 -7 -8 -42 -24 -78z m20 -44 c-15 -51 -25 -70
-31 -64 -3 3 -2 16 4 29 6 12 14 30 17 40 3 9 8 17 11 17 4 0 3 -10 -1 -22z
m1134 -3 c-2 -5 -11 -11 -22 -12 -16 -3 -17 -1 -6 12 14 16 34 16 28 0z m122
-106 c0 -11 -4 -19 -9 -19 -10 0 -21 24 -21 47 0 13 3 13 15 3 8 -7 15 -21 15
-31z m-1115 -37 c-8 -8 -25 17 -25 38 0 9 6 6 16 -8 9 -13 13 -26 9 -30z m-25
4 c0 -3 -4 -8 -10 -11 -5 -3 -10 -1 -10 4 0 6 5 11 10 11 6 0 10 -2 10 -4z
m24 -42 c9 -22 8 -24 -9 -18 -8 4 -15 12 -15 20 0 19 16 18 24 -2z m-270 -99
c-6 -14 -34 -29 -41 -21 -3 2 3 13 13 25 19 21 37 19 28 -4z m-294 -18 c0 -16
-35 -1 -38 16 -3 16 -1 17 17 5 12 -7 21 -17 21 -21z m-125 -7 c3 -5 1 -10 -4
-10 -6 0 -11 5 -11 10 0 6 2 10 4 10 3 0 8 -4 11 -10z m81 -87 c-10 -10 -19 5
-10 18 6 11 8 11 12 0 2 -7 1 -15 -2 -18z m1874 -68 c0 -5 -5 -3 -10 5 -5 8
-10 20 -10 25 0 6 5 3 10 -5 5 -8 10 -19 10 -25z m-26 -21 c4 -14 4 -29 1 -34
-4 -6 -1 -10 5 -10 8 0 10 -9 6 -24 -6 -26 8 -44 20 -25 4 8 9 7 15 -2 13 -21
11 -29 -9 -29 -10 0 -23 -5 -30 -12 -9 -9 -12 -7 -12 9 0 12 -5 25 -10 28 -6
4 -8 11 -5 16 4 5 3 15 -2 22 -4 6 -8 17 -9 22 0 6 -2 16 -2 23 -1 6 -9 12
-17 12 -12 0 -13 4 -5 19 13 26 46 16 54 -15z m-2044 -122 c0 -4 -16 -8 -35
-9 -19 -1 -35 3 -35 8 0 5 16 9 35 9 19 0 35 -4 35 -8z m-170 -477 c30 -8 71
-15 90 -15 71 0 152 -87 171 -183 14 -71 -9 -180 -61 -289 -25 -54 -44 -98
-42 -98 17 0 105 85 128 124 33 55 81 96 112 96 56 0 81 -34 57 -80 -19 -37
-29 -39 -20 -2 l7 27 -24 -22 c-14 -13 -34 -23 -47 -23 -14 0 -21 -5 -18 -12
2 -9 20 -12 50 -10 39 3 48 0 61 -20 8 -13 18 -39 21 -60 6 -31 2 -44 -29 -92
-51 -80 -106 -102 -186 -75 -30 11 -40 8 -139 -43 -107 -56 -250 -113 -259
-104 -12 13 25 37 86 57 37 12 112 47 167 77 100 56 124 62 191 47 40 -9 84
13 120 60 23 31 25 39 16 68 l-10 32 -1 -30 c-1 -39 -45 -89 -90 -104 -30 -10
-37 -9 -56 9 -28 27 -47 25 -98 -7 -83 -53 -188 -104 -205 -99 -17 6 -107 -51
-124 -77 -4 -6 -8 -26 -8 -43 0 -17 -6 -50 -14 -72 -8 -23 -12 -57 -9 -80 4
-30 -1 -58 -21 -107 l-26 -66 30 -42 c42 -60 49 -67 107 -115 39 -32 65 -45
102 -51 28 -4 57 -14 66 -21 9 -8 19 -9 23 -4 5 5 26 31 47 58 22 27 77 87
124 133 66 65 89 82 105 77 15 -4 17 -2 8 4 -10 7 3 21 50 55 35 25 70 52 78
60 53 48 74 55 149 51 95 -6 350 -69 491 -122 82 -31 325 -81 355 -73 5 1 15
-5 22 -15 7 -9 19 -14 27 -11 25 10 61 -33 97 -112 l33 -73 -19 -56 c-25 -73
-199 -420 -222 -443 -17 -16 -78 -18 -863 -22 -465 -2 -869 -1 -897 2 -51 7
-72 16 -61 26 10 10 115 34 171 39 57 4 137 33 137 48 0 4 -9 8 -19 8 -21 0
-69 35 -60 44 3 4 17 2 30 -2 31 -12 79 5 79 27 0 14 -7 17 -30 13 -25 -3 -37
3 -70 36 -38 37 -40 43 -40 100 0 78 -10 102 -70 171 -41 47 -80 113 -80 136
0 3 13 5 28 5 17 0 37 9 48 21 l19 22 -30 -16 c-27 -13 -35 -13 -64 -1 -33 14
-34 14 -27 66 6 46 5 50 -8 38 -23 -18 -20 -76 8 -158 26 -77 41 -102 111
-183 39 -46 43 -55 44 -107 1 -65 -7 -112 -19 -112 -4 0 -11 36 -14 81 -7 78
-9 83 -60 149 -30 38 -59 89 -67 114 -7 25 -16 46 -20 46 -3 0 -10 -15 -15
-32 -7 -23 -17 -34 -32 -36 -12 -2 -22 -8 -22 -14 0 -6 9 -8 20 -5 24 6 24 7
5 -29 -20 -39 -82 -102 -108 -110 -12 -3 -30 -13 -40 -22 -16 -15 -17 -14 -11
1 8 22 -5 22 -22 0 -13 -17 -13 -17 -14 0 0 23 26 75 54 106 20 23 20 24 1 17
-17 -6 -16 -3 5 17 14 14 28 23 31 21 4 -2 12 3 19 11 11 13 10 15 -6 12 -32
-4 -66 -34 -69 -59 -4 -33 -57 -111 -66 -96 -13 21 20 86 75 147 22 24 25 32
13 28 -15 -6 -17 -3 -12 13 4 11 4 20 2 20 -7 0 -39 -51 -41 -65 -1 -7 -6 -19
-12 -26 -5 -8 -19 -31 -29 -52 -11 -21 -21 -33 -23 -27 -7 19 29 108 59 150
29 40 29 41 8 48 -19 7 -19 9 -5 21 9 8 16 19 16 25 0 6 14 28 31 49 17 21 29
40 26 43 -3 3 -17 -11 -33 -31 -33 -44 -59 -59 -80 -47 -14 8 -9 15 26 43 23
19 56 47 74 62 l31 28 -35 -17 c-48 -23 -130 -96 -130 -115 0 -8 -7 -24 -16
-35 -14 -18 -15 -18 -9 6 19 73 58 121 130 159 59 30 63 34 70 64 7 26 6 27
-35 27 -23 0 -57 -7 -76 -16 -19 -9 -37 -14 -40 -11 -6 5 31 133 45 155 6 11
16 8 46 -12 40 -28 74 -33 106 -16 30 17 22 25 -24 26 -55 1 -107 31 -107 60
0 12 11 45 25 72 14 28 25 61 25 74 0 13 7 33 15 44 8 10 15 32 15 47 0 15 9
46 21 68 11 23 19 42 17 44 -12 10 -70 35 -81 35 -8 0 -26 9 -41 21 -38 30
-37 95 2 131 40 38 70 50 103 43 16 -4 29 -5 29 -3 0 2 4 17 9 35 7 25 6 31
-5 26 -7 -2 -16 -13 -19 -24 -7 -20 -25 -26 -25 -9 0 14 49 64 76 78 17 9 24
8 34 -3 7 -8 16 -15 21 -15 22 0 163 98 203 141 51 55 66 58 156 34z m195
-905 c3 -5 1 -10 -4 -10 -6 0 -11 5 -11 10 0 6 2 10 4 10 3 0 8 -4 11 -10z
m-1085 -160 c0 -5 -4 -10 -10 -10 -5 0 -10 5 -10 10 0 6 5 10 10 10 6 0 10 -4
10 -10z m315 -30 c-7 -12 -85 -33 -92 -26 -3 3 0 12 7 21 14 16 95 22 85 5z
m4008 -17 c-7 -2 -19 -2 -25 0 -7 3 -2 5 12 5 14 0 19 -2 13 -5z m-4058 -175
c-9 -29 -77 -168 -83 -168 -2 0 -1 17 3 38 4 20 8 43 8 50 0 6 4 12 9 12 4 0
8 5 8 11 0 5 -4 7 -10 4 -21 -13 -9 14 19 44 35 37 55 41 46 9z m2805 8 c0 -2
-18 -15 -40 -30 -22 -14 -40 -32 -40 -40 0 -12 -39 -30 -47 -23 -1 2 3 19 9
39 10 32 16 37 57 46 60 12 61 13 61 8z m-3295 -26 c3 -5 1 -10 -4 -10 -6 0
-11 5 -11 10 0 6 2 10 4 10 3 0 8 -4 11 -10z m468 -85 c-3 -9 -8 -14 -10 -11
-3 3 -2 9 2 15 9 16 15 13 8 -4z m-432 -8 c-1 -12 -15 -9 -19 4 -3 6 1 10 8 8
6 -3 11 -8 11 -12z m79 -331 c0 -3 -4 -8 -10 -11 -5 -3 -10 -1 -10 4 0 6 5 11
10 11 6 0 10 -2 10 -4z m30 -35 c0 -14 -18 -23 -30 -16 -6 4 -8 11 -5 16 8 12
35 12 35 0z m20 -71 c0 -5 -9 -10 -21 -10 -11 0 -17 5 -14 10 3 6 13 10 21 10
8 0 14 -4 14 -10z"/>
<path d="M3765 3460 c3 -5 11 -10 16 -10 6 0 7 5 4 10 -3 6 -11 10 -16 10 -6
0 -7 -4 -4 -10z"/>
<path d="M1170 1884 c0 -9 -109 -123 -145 -152 -13 -11 -19 -11 -33 0 -15 12
-16 11 -3 -5 12 -15 10 -21 -17 -46 -19 -18 -36 -51 -47 -86 -12 -43 -20 -55
-31 -51 -9 3 -27 6 -40 6 -14 0 -36 12 -50 27 -20 21 -23 33 -18 57 l6 31 -26
-25 c-21 -19 -26 -32 -24 -59 3 -34 6 -36 72 -59 38 -13 72 -19 75 -15 19 29
88 4 114 -42 16 -30 25 -14 26 47 1 105 36 199 114 310 23 32 38 61 34 64 -4
4 -7 3 -7 -2z"/>
<path d="M1517 1809 c12 -24 14 -50 10 -113 -9 -124 -59 -236 -143 -318 -46
-46 -54 -58 -38 -58 11 0 25 -5 31 -11 11 -11 76 60 105 116 52 99 83 223 75
295 -6 47 -35 120 -48 120 -4 0 0 -14 8 -31z"/>
<path d="M905 1500 c-3 -5 1 -10 9 -10 9 0 16 5 16 10 0 6 -4 10 -9 10 -6 0
-13 -4 -16 -10z"/>
<path d="M888 1443 c-8 -10 -18 -27 -22 -38 -4 -14 0 -12 15 8 11 15 27 27 35
27 8 0 14 5 14 10 0 16 -26 12 -42 -7z"/>
<path d="M1096 1424 c-12 -26 -14 -40 -7 -47 6 -6 12 -9 14 -6 5 4 16 89 13
89 -1 0 -10 -16 -20 -36z"/>
<path d="M935 1423 c-26 -6 -75 -53 -75 -72 0 -8 -6 -22 -14 -30 -8 -9 -23
-43 -35 -76 -19 -57 -19 -62 -3 -95 20 -40 74 -76 100 -65 9 5 23 9 30 11 8 1
21 9 30 17 10 8 27 18 40 21 19 6 22 14 22 55 0 34 6 53 21 70 30 32 35 18 9
-24 -16 -25 -21 -45 -17 -65 6 -25 2 -32 -31 -51 -20 -13 -52 -37 -70 -54 -28
-27 -30 -33 -19 -49 12 -16 17 -13 65 36 l52 53 -1 -35 c-1 -19 -3 -27 -6 -17
-7 25 -15 21 -46 -25 -23 -32 -26 -43 -15 -49 20 -13 25 -11 46 16 23 28 32
32 32 11 0 -28 20 -27 52 3 37 35 54 40 43 14 -14 -35 -15 -57 -1 -28 9 17 15
43 16 58 0 48 25 93 59 107 18 7 30 18 28 24 -2 6 2 24 10 39 8 16 13 30 11
31 -19 15 -179 61 -186 54 -6 -6 -12 2 -15 19 -4 18 -24 41 -54 63 -55 40 -52
39 -78 33z"/>
<path d="M1460 1345 c-7 -9 -8 -15 -2 -15 5 0 12 7 16 15 3 8 4 15 2 15 -2 0
-9 -7 -16 -15z"/>
<path d="M1402 1277 c-38 -39 -43 -61 -6 -26 24 22 50 59 41 59 -2 0 -17 -15
-35 -33z"/>
<path d="M1290 1249 c0 -5 5 -7 10 -4 6 3 10 8 10 11 0 2 -4 4 -10 4 -5 0 -10
-5 -10 -11z"/>
<path d="M1335 1210 c-10 -11 -13 -20 -8 -20 13 0 38 29 31 35 -3 3 -13 -4
-23 -15z"/>
<path d="M890 976 c0 -9 5 -16 10 -16 6 0 10 4 10 9 0 6 -4 13 -10 16 -5 3
-10 -1 -10 -9z"/>
<path d="M850 959 c0 -5 5 -7 10 -4 6 3 10 8 10 11 0 2 -4 4 -10 4 -5 0 -10
-5 -10 -11z"/>
<path d="M934 949 c-11 -19 60 -33 75 -15 10 11 4 15 -29 18 -23 2 -43 0 -46
-3z"/>
<path d="M1104 929 c-14 -27 -19 -30 -46 -25 -21 4 -28 2 -26 -7 6 -17 62 -21
75 -5 12 15 26 68 18 68 -2 0 -12 -14 -21 -31z"/>
<path d="M1845 860 c-3 -5 -1 -10 4 -10 6 0 11 5 11 10 0 6 -2 10 -4 10 -3 0
-8 -4 -11 -10z"/>
<path d="M840 530 c0 -5 5 -10 10 -10 6 0 10 5 10 10 0 6 -4 10 -10 10 -5 0
-10 -4 -10 -10z"/>
<path d="M780 435 c-7 -9 -11 -17 -9 -20 3 -2 10 5 17 15 14 24 10 26 -8 5z"/>
<path d="M1332 369 c1 -12 9 -24 16 -27 9 -3 13 3 10 19 -1 12 -9 24 -16 27
-9 3 -13 -3 -10 -19z"/>
<path d="M1320 290 c0 -5 5 -10 10 -10 6 0 10 5 10 10 0 6 -4 10 -10 10 -5 0
-10 -4 -10 -10z"/>
<path d="M2300 3900 c-39 -16 -41 -19 -18 -19 18 -1 29 -8 33 -21 3 -11 10
-20 13 -20 12 0 33 63 24 71 -4 4 -27 -1 -52 -11z"/>
<path d="M746 3881 c-10 -11 -16 -29 -14 -42 3 -22 10 -28 61 -48 19 -7 25
-15 20 -24 -4 -6 -13 -27 -19 -44 -11 -31 -10 -33 12 -33 17 0 24 -6 24 -19 0
-11 11 -32 25 -47 19 -21 34 -27 61 -26 38 2 64 16 64 36 0 6 12 19 26 29 20
15 30 16 52 8 20 -8 21 -10 5 -7 -12 2 -27 -2 -34 -10 -9 -12 -4 -14 35 -14
35 0 46 -4 46 -16 0 -8 4 -13 9 -9 11 6 -2 60 -19 80 -6 7 -26 21 -45 30 -19
9 -35 21 -35 28 0 21 -32 41 -105 66 -38 13 -83 34 -100 46 -48 35 -51 35 -69
16z m171 -192 c7 -17 21 -33 32 -36 12 -3 21 -9 21 -14 0 -18 -30 -21 -72 -8
-37 12 -43 18 -45 44 -4 52 46 63 64 14z"/>
<path d="M1598 3849 c-3 -9 -81 -26 -210 -44 -33 -4 -51 -12 -58 -26 -6 -10
-17 -19 -25 -19 -24 0 -20 -77 3 -84 13 -5 19 -16 19 -38 0 -20 6 -36 18 -42
10 -6 26 -19 37 -28 17 -17 18 -17 15 2 -2 11 -13 27 -25 36 -31 22 -28 48 8
61 26 10 30 9 28 -5 -3 -17 35 -31 65 -24 27 7 20 20 -8 14 -41 -7 -28 13 26
43 l51 28 25 -32 c29 -36 63 -41 93 -11 22 22 40 26 40 10 0 -6 -20 -23 -45
-38 -24 -15 -45 -31 -45 -35 0 -11 43 3 51 16 5 6 17 6 37 -1 27 -9 32 -8 53
19 14 19 31 29 48 29 l26 1 -21 17 c-24 20 -41 62 -25 62 5 0 12 -4 15 -8 7
-11 66 -3 66 9 0 5 -4 9 -9 9 -6 0 -9 12 -8 27 2 23 -3 28 -38 38 -60 18 -202
28 -207 14z"/>
<path d="M2317 3743 c-4 -3 -7 -13 -7 -22 0 -9 -9 -27 -20 -41 -23 -29 -25
-40 -7 -40 7 0 20 23 30 51 17 48 19 67 4 52z"/>
<path d="M1570 3620 c0 -5 4 -10 9 -10 6 0 13 5 16 10 3 6 -1 10 -9 10 -9 0
-16 -4 -16 -10z"/>
<path d="M4140 3560 c0 -5 5 -10 11 -10 5 0 7 5 4 10 -3 6 -8 10 -11 10 -2 0
-4 -4 -4 -10z"/>
<path d="M1965 3471 c-3 -5 -2 -12 2 -14 9 -5 53 10 53 18 0 9 -49 5 -55 -4z"/>
<path d="M1380 3300 c0 -5 3 -10 8 -10 4 0 8 -22 10 -49 2 -42 -1 -51 -21 -64
-20 -13 -26 -13 -38 -2 -17 17 -92 23 -111 9 -7 -6 -22 -14 -32 -18 -28 -10
-14 -17 44 -21 28 -2 58 -9 65 -15 20 -16 111 25 119 53 9 35 7 87 -4 87 -5 0
-9 3 -9 8 3 20 -2 32 -16 32 -8 0 -15 -4 -15 -10z"/>
<path d="M4065 3240 c-3 -5 -1 -10 4 -10 6 0 11 5 11 10 0 6 -2 10 -4 10 -3 0
-8 -4 -11 -10z"/>
<path d="M1970 3218 c0 -19 2 -20 10 -8 13 19 13 30 0 30 -5 0 -10 -10 -10
-22z"/>
<path d="M3783 3226 c-50 -16 -105 -54 -98 -67 8 -12 57 -12 89 1 15 5 58 12
96 16 39 3 83 12 98 20 15 8 33 14 40 14 17 0 15 17 -4 24 -28 11 -178 5 -221
-8z"/>
<path d="M1096 3181 c-8 -12 31 -44 43 -36 6 3 11 10 11 14 0 12 -49 31 -54
22z"/>
<path d="M4066 3048 c-26 -37 -18 -48 14 -18 33 31 37 40 16 40 -8 0 -22 -10
-30 -22z"/>
<path d="M4148 2988 c-31 -11 -37 -32 -12 -42 20 -8 74 14 74 30 0 9 -25 27
-33 23 -1 0 -14 -5 -29 -11z"/>
<path d="M1900 2969 c0 -5 5 -7 10 -4 6 3 10 8 10 11 0 2 -4 4 -10 4 -5 0 -10
-5 -10 -11z"/>
<path d="M4277 2966 c-3 -8 -3 -17 0 -20 9 -9 73 -7 73 2 0 29 -63 44 -73 18z"/>
<path d="M4040 2950 c0 -16 40 -41 62 -38 21 3 18 6 -19 24 -24 12 -43 18 -43
14z"/>
<path d="M1523 2925 c-28 -8 -82 -13 -120 -11 -43 2 -82 -2 -106 -11 -23 -10
-50 -13 -72 -9 -19 4 -51 4 -70 0 -28 -5 -33 -9 -25 -19 9 -10 41 -13 133 -10
67 2 130 7 140 10 9 4 17 3 17 -2 0 -11 85 8 119 26 11 6 33 11 50 11 35 0 61
9 61 21 0 13 -67 10 -127 -6z"/>
<path d="M3297 2913 c-4 -3 -7 -11 -7 -17 0 -6 5 -5 12 2 6 6 9 14 7 17 -3 3
-9 2 -12 -2z"/>
<path d="M1066 2901 c-7 -11 22 -23 36 -15 6 4 5 10 -3 15 -18 11 -26 11 -33
0z"/>
<path d="M4320 2889 c0 -5 5 -7 10 -4 6 3 10 8 10 11 0 2 -4 4 -10 4 -5 0 -10
-5 -10 -11z"/>
<path d="M3272 2872 c-9 -6 -11 -23 -7 -52 5 -44 31 -97 42 -86 3 3 -2 17 -12
32 -13 20 -16 38 -11 70 3 24 5 44 3 44 -1 0 -8 -4 -15 -8z"/>
<path d="M1283 2792 c-21 -2 -33 -9 -33 -18 0 -8 -9 -14 -20 -14 -11 0 -20 -4
-20 -8 0 -17 39 -44 54 -39 8 3 16 1 18 -4 2 -6 29 -10 61 -10 63 0 88 8 66
22 -11 7 -9 10 9 15 12 4 22 13 22 20 0 8 9 14 20 14 11 0 20 4 20 9 0 5 -15
8 -32 7 -48 -4 -48 -4 -49 -23 0 -14 -2 -15 -6 -3 -9 22 -26 30 -40 18 -9 -7
-13 -7 -13 0 0 13 -19 18 -57 14z m42 -32 c3 -5 -3 -10 -15 -10 -12 0 -18 5
-15 10 3 6 10 10 15 10 5 0 12 -4 15 -10z"/>
<path d="M2396 2791 c-4 -5 -2 -12 3 -15 5 -4 12 -2 15 3 4 5 2 12 -3 15 -5 4
-12 2 -15 -3z"/>
<path d="M3325 2790 c-8 -13 3 -30 21 -30 18 0 18 14 0 29 -10 8 -16 9 -21 1z"/>
<path d="M2160 2774 c0 -8 5 -12 10 -9 6 4 8 11 5 16 -9 14 -15 11 -15 -7z"/>
<path d="M3402 2768 c3 -7 12 -14 21 -16 12 -2 15 1 11 12 -7 19 -38 22 -32 4z"/>
<path d="M2360 2759 c0 -5 5 -7 10 -4 6 3 10 8 10 11 0 2 -4 4 -10 4 -5 0 -10
-5 -10 -11z"/>
<path d="M4060 2724 c-25 -13 -62 -26 -82 -30 -22 -4 -38 -12 -38 -20 0 -11
18 -14 76 -14 62 0 79 3 90 18 10 14 27 17 97 16 75 -1 92 -5 142 -32 71 -39
113 -31 64 12 -32 27 -91 45 -151 45 -29 0 -65 4 -79 10 -15 5 -29 7 -32 5 -3
-3 -14 -2 -24 3 -13 7 -31 3 -63 -13z"/>
<path d="M2100 2720 c0 -5 4 -10 9 -10 6 0 13 5 16 10 3 6 -1 10 -9 10 -9 0
-16 -4 -16 -10z"/>
<path d="M3300 2682 c0 -12 19 -26 26 -19 2 2 -2 10 -11 17 -9 8 -15 8 -15 2z"/>
<path d="M2044 2665 c-16 -12 -17 -14 -3 -15 9 0 19 7 23 15 7 19 5 19 -20 0z"/>
<path d="M1610 2659 c0 -5 5 -7 10 -4 6 3 10 8 10 11 0 2 -4 4 -10 4 -5 0 -10
-5 -10 -11z"/>
<path d="M1270 2521 c0 -6 5 -13 10 -16 6 -3 10 1 10 9 0 9 -4 16 -10 16 -5 0
-10 -4 -10 -9z"/>
<path d="M3497 2084 c-12 -12 13 -43 33 -41 20 1 29 17 10 17 -5 0 -10 7 -10
15 0 15 -21 21 -33 9z"/>
<path d="M3900 1884 c0 -9 7 -14 17 -12 25 5 28 28 4 28 -12 0 -21 -6 -21 -16z"/>
<path d="M476 1123 c-6 -14 -5 -15 5 -6 7 7 10 15 7 18 -3 3 -9 -2 -12 -12z"/>
<path d="M470 1069 c0 -5 5 -7 10 -4 6 3 10 8 10 11 0 2 -4 4 -10 4 -5 0 -10
-5 -10 -11z"/>
<path d="M4589 815 c-48 -26 -80 -104 -95 -230 -9 -74 -31 -116 -72 -135 -17
-8 -32 -18 -32 -22 0 -5 28 -8 61 -8 52 0 60 2 50 14 -10 11 -8 16 8 21 27 8
27 25 1 25 -27 0 -25 12 5 40 18 17 22 26 13 31 -8 5 -7 14 5 33 22 33 21 35
-5 28 -18 -4 -20 -2 -13 14 4 10 8 30 10 44 2 33 19 64 62 111 40 44 41 54 2
34z"/>
<path d="M5112 775 c0 -16 2 -22 5 -12 2 9 2 23 0 30 -3 6 -5 -1 -5 -18z"/>
<path d="M4589 720 c-14 -11 -18 -19 -11 -20 15 0 72 28 72 35 0 13 -40 3 -61
-15z"/>
<path d="M4710 725 c-10 -12 -9 -16 4 -20 9 -3 23 -7 32 -10 22 -7 144 6 144
15 0 28 -158 41 -180 15z"/>
<path d="M4980 720 c0 -12 7 -20 18 -21 9 0 27 -2 40 -5 33 -6 27 12 -12 30
-43 20 -46 20 -46 -4z"/>
<path d="M5093 683 c5 -39 27 -42 27 -4 0 21 -5 31 -15 31 -11 0 -15 -8 -12
-27z"/>
<path d="M4015 680 c-4 -6 -4 -10 -1 -10 2 0 11 -3 20 -6 9 -3 16 -2 16 4 0
14 -28 23 -35 12z"/>
<path d="M3859 670 c-48 -8 -129 -48 -129 -64 0 -4 7 -5 16 -2 31 12 60 17
109 19 47 2 50 4 50 30 1 15 1 26 0 26 0 -1 -21 -5 -46 -9z"/>
<path d="M4915 660 c-4 -6 -4 -14 0 -18 10 -10 125 -50 125 -43 0 11 -68 60
-93 66 -14 4 -28 2 -32 -5z"/>
<path d="M4610 631 c0 -13 20 -18 47 -13 36 7 27 22 -12 22 -19 0 -35 -4 -35
-9z"/>
<path d="M5077 590 c15 -22 30 -40 35 -40 18 0 7 50 -14 64 -40 28 -48 18 -21
-24z"/>
<path d="M4005 588 c-19 -11 -18 -12 10 -19 34 -10 38 -8 29 15 -7 19 -12 19
-39 4z"/>
<path d="M4627 574 c5 -13 2 -15 -17 -9 -17 6 -21 4 -14 -6 5 -8 9 -19 9 -26
0 -22 45 -63 68 -63 27 0 50 39 40 67 -9 24 -35 43 -50 38 -7 -2 -15 0 -18 5
-10 16 -25 11 -18 -6z m61 -47 c4 -21 -27 -35 -38 -17 -12 19 0 42 19 38 9 -2
17 -11 19 -21z"/>
<path d="M4907 579 c-17 -10 -14 -14 23 -41 48 -36 60 -31 34 13 -22 38 -32
42 -57 28z"/>
<path d="M3535 550 c-16 -16 -24 -30 -18 -30 25 0 104 40 98 50 -12 19 -52 10
-80 -20z"/>
<path d="M4747 569 c-17 -10 -23 -29 -9 -29 5 0 16 6 27 13 22 17 7 29 -18 16z"/>
<path d="M3672 543 c-33 -16 -89 -79 -80 -89 4 -3 111 52 136 71 5 4 -10 35
-17 35 -3 0 -21 -8 -39 -17z"/>
<path d="M5036 538 c-5 -18 2 -30 31 -55 21 -17 39 -30 41 -28 6 6 -29 73 -47
89 -17 16 -19 15 -25 -6z"/>
<path d="M3985 530 c-3 -5 1 -10 9 -10 8 0 18 5 21 10 3 6 -1 10 -9 10 -8 0
-18 -4 -21 -10z"/>
<path d="M4745 528 c-2 -7 -5 -24 -7 -38 -8 -65 -331 -151 -409 -110 -19 11
-20 31 -3 75 7 17 6 18 -8 7 -9 -7 -18 -26 -22 -42 -5 -27 -9 -30 -46 -30 -31
0 -47 7 -71 30 -26 25 -30 32 -19 45 10 12 10 15 -3 15 -9 0 -21 -9 -27 -21
-13 -23 -10 -65 5 -62 6 1 21 -5 35 -15 14 -9 43 -19 65 -22 37 -5 40 -8 43
-39 2 -21 0 -31 -7 -26 -7 4 -11 -4 -11 -20 0 -15 4 -24 10 -20 15 9 12 -59
-2 -74 -11 -10 -10 -11 4 -6 13 5 20 -4 35 -44 10 -28 23 -51 30 -51 16 0 33
32 33 62 0 19 -2 20 -10 8 -16 -24 -50 23 -52 74 -3 64 3 110 13 117 6 3 36 7
67 8 89 2 170 19 255 53 43 17 80 28 83 26 5 -5 8 -102 5 -176 -1 -39 -3 -43
-21 -37 -14 5 -20 2 -20 -10 0 -9 -4 -13 -10 -10 -5 3 -10 33 -10 66 0 32 -2
59 -5 59 -3 0 -17 -12 -30 -27 l-23 -28 -24 22 c-16 15 -32 21 -48 17 -24 -4
-24 -4 -2 5 12 6 22 15 22 21 0 13 -17 13 -25 0 -3 -6 -15 -5 -31 2 -18 9 -27
9 -36 0 -9 -9 -5 -12 18 -13 l29 -1 -28 -8 c-16 -5 -35 -14 -43 -21 -12 -10
-13 -9 -8 7 4 11 3 16 -2 11 -5 -5 -9 -16 -10 -25 -3 -44 -5 -52 -13 -52 -5 0
-12 16 -15 35 -4 20 -11 33 -16 30 -9 -5 -4 -66 8 -95 3 -8 10 -33 16 -54 19
-68 36 -56 30 21 -3 37 -1 74 4 82 6 7 26 15 45 16 l35 3 4 -54 c5 -53 30
-103 55 -111 23 -8 47 48 45 102 -1 35 2 56 12 64 12 10 16 3 22 -46 4 -32 7
-74 7 -93 -1 -34 11 -60 28 -60 5 0 6 7 3 15 -3 8 1 21 10 30 8 9 18 31 22 50
9 50 22 43 30 -15 6 -47 23 -77 31 -53 2 5 26 45 53 88 42 67 50 87 50 128 0
56 -19 95 -60 122 -16 11 -27 22 -24 26 2 4 -1 11 -7 15 -8 5 -9 3 -4 -5 5 -9
0 -12 -16 -9 -21 3 -24 8 -21 41 3 36 -4 50 -13 25z m79 -117 c25 -22 46 -65
46 -96 0 -36 -27 -98 -40 -90 -6 3 -13 -1 -16 -9 -3 -9 -12 -16 -20 -16 -8 0
-14 -7 -14 -15 0 -20 19 -19 37 3 13 15 13 14 1 -7 -22 -38 -36 -36 -48 6 -13
47 -25 215 -16 238 7 19 40 13 70 -14z m-224 -217 c0 -24 -5 -46 -12 -50 -27
-17 -61 83 -38 111 22 26 50 -9 50 -61z m114 -19 c-7 -16 -24 -21 -24 -6 0 8
7 13 27 20 1 1 0 -6 -3 -14z"/>
<path d="M4565 510 c-3 -5 1 -10 10 -10 9 0 13 5 10 10 -3 6 -8 10 -10 10 -2
0 -7 -4 -10 -10z"/>
<path d="M4044 489 l-19 -22 30 7 c36 9 39 12 30 25 -9 16 -20 13 -41 -10z"/>
<path d="M4308 503 c-20 -5 -25 -33 -5 -33 6 0 19 5 27 10 19 12 2 28 -22 23z"/>
<path d="M3405 478 c-33 -23 -70 -67 -62 -74 7 -7 124 52 133 67 7 11 -13 29
-31 28 -5 0 -24 -10 -40 -21z"/>
<path d="M3731 471 c-11 -15 -23 -40 -27 -57 l-6 -29 31 35 c46 51 53 67 36
74 -8 3 -22 -6 -34 -23z"/>
<path d="M3840 433 c-22 -30 -39 -57 -36 -60 4 -5 14 4 70 66 21 23 34 30 48
25 14 -4 19 -2 16 7 -3 8 -16 15 -30 16 -21 1 -34 -9 -68 -54z"/>
<path d="M3494 424 c-29 -30 -57 -91 -48 -103 2 -2 27 17 57 43 45 38 53 50
49 71 -6 34 -19 31 -58 -11z"/>
<path d="M4016 437 c28 -13 60 -37 72 -52 27 -34 41 -26 21 12 -15 27 -57 50
-112 59 -27 5 -24 2 19 -19z"/>
<path d="M4272 440 c-9 -15 -19 -19 -37 -14 -15 4 -25 2 -25 -5 0 -6 3 -11 8
-12 4 0 20 -2 35 -4 29 -4 42 10 35 40 -2 13 -5 12 -16 -5z"/>
<path d="M5000 446 c0 -16 40 -69 47 -62 10 9 -19 76 -33 76 -8 0 -14 -6 -14
-14z"/>
<path d="M3848 398 c-26 -29 -45 -54 -42 -57 3 -3 8 -1 12 5 30 48 103 3 121
-74 17 -69 17 -127 1 -157 -14 -26 -13 -28 20 -55 32 -27 35 -27 40 -10 4 15
9 17 20 10 30 -19 60 -11 81 23 18 28 20 45 17 137 -4 120 -19 160 -71 186
-30 16 -120 44 -142 44 -5 0 -31 -23 -57 -52z m166 -9 c48 -38 69 -94 70 -189
0 -127 -28 -162 -78 -97 -18 24 -30 59 -42 127 -8 52 -25 110 -36 127 -10 18
-17 37 -13 43 11 17 71 11 99 -11z"/>
<path d="M4025 100 c3 -5 10 -10 16 -10 5 0 9 5 9 10 0 6 -7 10 -16 10 -8 0
-12 -4 -9 -10z"/>
<path d="M4850 443 c1 -5 12 -21 25 -38 16 -20 25 -25 25 -14 0 8 -9 25 -20
37 -22 23 -30 27 -30 15z"/>
<path d="M4928 429 c-15 -8 -15 -13 5 -59 28 -62 42 -64 33 -4 -8 61 -17 75
-38 63z"/>
<path d="M4574 424 c-6 -3 -40 -11 -75 -19 -47 -10 -55 -14 -31 -14 40 -1 120
18 128 30 5 9 -3 11 -22 3z"/>
<path d="M3610 385 c-7 -8 -19 -15 -26 -15 -8 0 -16 -12 -20 -27 -3 -16 -7
-34 -10 -40 -8 -27 13 -11 49 37 20 27 37 52 37 55 0 10 -18 5 -30 -10z"/>
<path d="M3667 356 c-10 -25 -8 -68 3 -86 5 -8 10 -12 12 -10 12 18 48 103 45
106 -7 8 -37 -8 -38 -20 0 -6 -4 -2 -8 8 -7 18 -8 18 -14 2z"/>
<path d="M70 343 c-14 -7 -18 -13 -10 -13 17 0 47 17 40 23 -3 2 -16 -2 -30
-10z"/>
<path d="M5090 338 c0 -14 -5 -28 -11 -30 -6 -2 -2 -29 13 -73 l23 -69 3 84
c2 65 -1 87 -13 99 -13 14 -15 13 -15 -11z"/>
<path d="M4660 339 c0 -5 5 -7 10 -4 6 3 10 8 10 11 0 2 -4 4 -10 4 -5 0 -10
-5 -10 -11z"/>
<path d="M4166 308 c-8 -13 -17 -34 -20 -48 -6 -23 -5 -24 6 -6 7 11 23 30 36
43 26 28 27 33 7 33 -8 0 -21 -10 -29 -22z"/>
<path d="M80 310 c0 -5 5 -10 10 -10 6 0 10 5 10 10 0 6 -4 10 -10 10 -5 0
-10 -4 -10 -10z"/>
<path d="M3771 285 c0 -17 4 -39 8 -50 7 -17 9 -14 13 15 4 23 1 40 -8 50 -12
12 -14 10 -13 -15z"/>
<path d="M4176 268 c-21 -30 -20 -81 3 -127 32 -61 45 -66 65 -25 9 20 15 39
12 41 -2 2 -7 -5 -11 -16 -3 -12 -13 -21 -21 -21 -17 0 -18 32 -3 75 13 34 2
86 -18 92 -6 2 -18 -6 -27 -19z m34 -48 c0 -10 -4 -22 -10 -25 -6 -4 -10 7
-10 25 0 18 4 29 10 25 6 -3 10 -15 10 -25z"/>
<path d="M115 250 c-3 -5 -1 -10 4 -10 6 0 11 5 11 10 0 6 -2 10 -4 10 -3 0
-8 -4 -11 -10z"/>
<path d="M68 243 c7 -3 16 -2 19 1 4 3 -2 6 -13 5 -11 0 -14 -3 -6 -6z"/>
<path d="M36 165 c-8 -22 -3 -28 19 -23 14 3 14 5 2 22 -13 18 -14 18 -21 1z"/>
<path d="M3860 144 c0 -8 5 -12 10 -9 6 4 8 11 5 16 -9 14 -15 11 -15 -7z"/>
<path d="M156 118 c-5 -10 -12 -15 -17 -12 -5 3 -9 -5 -9 -17 0 -17 3 -19 13
-10 10 7 17 7 24 0 8 -8 13 -8 17 0 4 6 3 11 -3 11 -5 0 -11 10 -14 23 -3 19
-4 20 -11 5z"/>
<path d="M200 99 c0 -5 5 -7 10 -4 6 3 10 8 10 11 0 2 -4 4 -10 4 -5 0 -10 -5
-10 -11z"/>
<path d="M273 67 c-42 -11 -59 -27 -28 -27 24 0 95 24 95 32 0 9 -11 8 -67 -5z"/>
<path d="M190 40 c0 -5 5 -10 10 -10 6 0 10 5 10 10 0 6 -4 10 -10 10 -5 0
-10 -4 -10 -10z"/>
</g>
</svg>
